<svg width="523" height="336" xmlns="http://www.w3.org/2000/svg" data-name="Layer 1">

 <g>
  <title>Layer 1</title>
  <circle id="svg_1" transform="rotate(-45 -511.277 424.431)" fill="#2f2e41" r="43.06732" cy="986.20685" cx="255.07301"/>
  <circle id="svg_2" transform="rotate(-12.4812 -439.631 -104.085)" fill="#fff" r="14.71924" cy="447.28058" cx="323.29797"/>
  <circle id="svg_3" transform="rotate(-12.4812 -438.95 -105.464)" fill="#3f3d56" r="4.90643" cy="442.10088" cx="318.01614"/>
  <path id="svg_4" fill="#f9ef0e" d="m426.14834,250.6599c-17.61323,-0.03251 -29.97775,-3.17854 -29.94827,-19.13582s14.33174,-28.86688 31.945,-28.83431s31.86768,12.99488 31.8382,28.95216c-0.02955,15.95736 -16.22171,19.05048 -33.83493,19.01797z"/>
  <path id="svg_5" fill="#b2b2b2" d="m495.35155,286.97444c-5.05211,17.52641 -19.80364,29.79509 -35.19135,40.21716q-3.22281,2.18327 -6.44766,4.266c-0.01457,0.00636 -0.02957,0.02 -0.04432,0.02649c-0.10343,0.06645 -0.20707,0.133 -0.30344,0.19991c-0.44372,0.286 -0.88759,0.57222 -1.32762,0.855l0.24171,0.10858s0.23735,0.12621 -0.02233,0.02024c-0.07728,-0.03233 -0.15825,-0.06136 -0.23537,-0.09387c-8.93929,-3.60536 -18.03735,-7.4764 -24.888,-14.23042c-7.1065,-7.0136 -11.25952,-18.01413 -7.41141,-27.228a17.5918,17.5918 0 0 1 1.90481,-3.41886c0.31214,-0.44666 0.64831,-0.87416 0.99832,-1.29373a18.85591,18.85591 0 0 1 32.3856,5.72979c1.1305,-10.52576 -7.54879,-19.34265 -15.90135,-25.84822c-8.35623,-6.50228 -17.85125,-13.58341 -19.46674,-24.05074c-0.90215,-5.82388 1.12306,-11.46778 4.81224,-15.99852c0.11421,-0.13766 0.22827,-0.27514 0.3459,-0.409a27.51849,27.51849 0 0 1 17.68718,-9.48885c12.81321,-1.33167 25.25927,5.4506 34.56779,14.35941c14.98203,14.33369 24.03931,36.35019 18.29604,56.27763z"/>
  <path id="svg_6" fill="#fff" d="m471.26735,264.05008a46.77965,46.77965 0 0 1 5.60443,12.36093a40.61967,40.61967 0 0 1 1.404,11.9968a52.04376,52.04376 0 0 1 -6.81624,23.68461a74.9024,74.9024 0 0 1 -11.29934,15.09918q-3.22281,2.18327 -6.44766,4.266c-0.01457,0.00636 -0.02957,0.02 -0.04432,0.02649c-0.10343,0.06645 -0.20707,0.133 -0.30344,0.19991c-0.44372,0.286 -0.88759,0.57222 -1.32762,0.855c0,0 0.47906,0.23479 0.21938,0.12882c-0.07728,-0.03233 -0.15825,-0.06136 -0.23537,-0.09387a41.40487,41.40487 0 0 0 -13.249,-35.6508a41.75957,41.75957 0 0 0 -17.14558,-9.22645c0.31214,-0.44666 0.64831,-0.87416 0.99832,-1.29373a43.296,43.296 0 0 1 7.14664,2.70436a42.424,42.424 0 0 1 19.18179,18.49347a43.37384,43.37384 0 0 1 4.72253,23.80133c0.36729,-0.33284 0.735,-0.67291 1.09167,-1.00976c6.7929,-6.33309 12.82634,-13.60244 16.90958,-21.99189a48.41647,48.41647 0 0 0 5.06988,-22.90748c-0.33324,-8.65329 -3.781,-16.66846 -8.77294,-23.64614a101.34553,101.34553 0 0 0 -19.21051,-19.79842a115.15792,115.15792 0 0 0 -23.89219,-14.75057a0.828,0.828 0 0 1 -0.41667,-1.06262a0.7042,0.7042 0 0 1 0.3459,-0.409a0.61308,0.61308 0 0 1 0.53243,0.02261c1.0539,0.48518 2.10048,0.977 3.13867,1.49007a116.46492,116.46492 0 0 1 24.06247,15.87266c7.08278,6.03854 13.75084,12.93755 18.73319,20.83849z"/>
  <ellipse id="svg_7" fill="#2f2e41" ry="4.08868" rx="10.90314" cy="331.4603" cx="73.71401"/>
  <ellipse id="svg_8" fill="#2f2e41" ry="4.08868" rx="10.90314" cy="330.91516" cx="99.88149"/>
  <ellipse id="svg_9" transform="rotate(-29.9626 -546.625 25.1)" fill="#2f2e41" ry="6.76007" rx="21.53369" cy="567.52437" cx="-76.88124"/>
  <circle id="svg_10" transform="rotate(-80.7825 -533.758 600.395)" fill="#2f2e41" r="43.06735" cy="1156.34097" cx="-112.82122"/>
  <rect id="svg_11" fill="#2f2e41" height="23.44171" width="13.08374" y="307.746" x="62.81087"/>
  <rect id="svg_12" fill="#2f2e41" height="23.44171" width="13.08374" y="307.746" x="88.97835"/>
  <circle id="svg_13" fill="#fff" r="14.71922" cy="263.04321" cx="83.52681"/>
  <circle id="svg_14" fill="#3f3d56" r="4.90642" cy="263.04321" cx="83.52681"/>
  <path id="svg_15" fill="#b2b2b2" d="m40.65975,233.89493c-3.47748,-15.57379 7.63867,-31.31046 24.82861,-35.14884s33.94421,5.67508 37.42169,21.24887s-7.91491,21.31766 -25.10486,25.156s-33.66796,4.31779 -37.14544,-11.25603z"/>
  <ellipse id="svg_16" transform="rotate(-64.6257 -609.926 360.786)" fill="#2f2e41" ry="21.53368" rx="6.76007" cy="896.74942" cx="-237.49728"/>
  <path id="svg_17" fill="#fff" d="m61.28194,289.48328c0,4.21514 10.85327,12.53857 22.89654,12.53857s23.33515,-11.867 23.33515,-16.08209s-11.29193,0.81775 -23.33515,0.81775s-22.89654,-1.48938 -22.89654,2.72577z"/>
  <ellipse id="svg_18" fill="#2f2e41" ry="4.08868" rx="10.90314" cy="331.4603" cx="232.60883"/>
  <ellipse id="svg_19" fill="#2f2e41" ry="4.08868" rx="10.90314" cy="330.91516" cx="206.44135"/>
  <ellipse id="svg_20" transform="rotate(-60.0374 -551.35 434.459)" fill="#2f2e41" ry="21.53369" rx="6.76007" cy="976.88367" cx="-37.77091"/>
  <circle id="svg_21" fill="#2f2e41" r="43.06734" cy="273.94632" cx="223.88636"/>
  <rect id="svg_22" fill="#2f2e41" height="23.44171" width="13.08374" y="307.746" x="230.42822"/>
  <rect id="svg_23" fill="#2f2e41" height="23.44171" width="13.08374" y="307.746" x="204.26074"/>
  <circle id="svg_24" fill="#fff" r="14.71922" cy="263.04321" cx="213.79602"/>
  <ellipse id="svg_25" transform="rotate(-44.9743 -562.777 262.291)" fill="#3f3d56" ry="4.88593" rx="4.92055" cy="805.33377" cx="-17.48065"/>
  <path id="svg_26" fill="#f9ef0e" d="m228.51764,245.15094c-17.18994,-3.83832 -28.58234,-9.58219 -25.10486,-25.156s20.23175,-25.08725 37.42169,-21.24887s28.3061,19.57505 24.82862,35.14884s-19.95551,15.09435 -37.14545,11.25603z"/>
  <ellipse id="svg_27" transform="rotate(-14.8746 -464.129 -108.459)" fill="#2f2e41" ry="21.53368" rx="6.76007" cy="459.50425" cx="137.76548"/>
  <path id="svg_28" fill="#fff" d="m214.12933,286.75815c-7.90666,0 -15.32008,-5.03284 -15.32008,-0.81775s7.41338,16.08209 15.32008,16.08209s15.03213,-8.32343 15.03213,-12.53857s-7.12546,-2.72577 -15.03213,-2.72577z"/>
  <path id="svg_29" fill="#f9ef0e" d="m158.47168,202.53906l-3.82468,0a12.93742,12.93742 0 0 1 -12.92285,-12.92285l0,-3.21094c0,-7.95312 1.50684,-14.6123 4.479,-19.79248a104.11414,104.11414 0 0 1 12.542,-16.85156a74.26915,74.26915 0 0 0 8.52783,-10.27881a17.29,17.29 0 0 0 2.69336,-9.5625c0,-7.978 -5.19776,-11.85644 -15.89063,-11.85644a64.52587,64.52587 0 0 0 -17.51513,2.6289a14.7451,14.7451 0 0 1 -18.79248,-14.17822l0,-6.5a14.46343,14.46343 0 0 1 8.53222,-13.25635a78.08334,78.08334 0 0 1 31.81003,-6.25781c11.44434,0 21.77539,1.92236 30.707,5.71289c8.94776,3.79932 16.01709,9.15674 21.01123,15.92383a38.35194,38.35194 0 0 1 7.53614,23.24414c0,8.98 -2.45166,16.80127 -7.28663,23.24658c-4.78222,6.37988 -11.63769,13.36426 -20.376,20.76026a145.20407,145.20407 0 0 0 -13.06348,12.30664a22.71817,22.71817 0 0 0 -5.43115,10.11132a12.888,12.888 0 0 1 -12.73578,10.7334z"/>
  <path id="svg_30" fill="#f9ef0e" d="m156.34521,263.31055l-0.50439,0a23.95118,23.95118 0 0 1 0,-47.90235l0.50439,0a23.95118,23.95118 0 1 1 0,47.90235z"/>
  <path id="svg_31" fill="#ccc" d="m312,336l-311,0a1,1 0 0 1 0,-2l311,0a1,1 0 0 1 0,2z"/>
  <path id="svg_32" fill="#ccc" d="m522,336l-166,0a1,1 0 0 1 0,-2l166,0a1,1 0 0 1 0,2z"/>
  <ellipse id="svg_33" transform="rotate(-1.12041 -349.736 -267.08)" fill="#2f2e41" ry="6.76007" rx="21.53368" cy="314.95142" cx="407.60262"/>
  <path id="svg_34" fill="#b2b2b2" d="m408.16142,149l-26,0a5.00573,5.00573 0 0 1 -5,-5l0,-26a5.00573,5.00573 0 0 1 5,-5l26,0a5.00573,5.00573 0 0 1 5,5l0,26a5.00573,5.00573 0 0 1 -5,5zm-26,-34a3.00328,3.00328 0 0 0 -3,3l0,26a3.00328,3.00328 0 0 0 3,3l26,0a3.00328,3.00328 0 0 0 3,-3l0,-26a3.00328,3.00328 0 0 0 -3,-3l-26,0z"/>
  <path id="svg_35" fill="#b2b2b2" d="m420.16142,132l-26,0a5.00573,5.00573 0 0 1 -5,-5l0,-26a5.00573,5.00573 0 0 1 5,-5l26,0a5.00573,5.00573 0 0 1 5,5l0,26a5.00573,5.00573 0 0 1 -5,5zm-26,-34a3.00328,3.00328 0 0 0 -3,3l0,26a3.00328,3.00328 0 0 0 3,3l26,0a3.00328,3.00328 0 0 0 3,-3l0,-26a3.00328,3.00328 0 0 0 -3,-3l-26,0z"/>
  <path id="svg_36" fill="#b2b2b2" d="m215.16142,49l-26,0a5.00573,5.00573 0 0 1 -5,-5l0,-26a5.00573,5.00573 0 0 1 5,-5l26,0a5.00573,5.00573 0 0 1 5,5l0,26a5.00573,5.00573 0 0 1 -5,5zm-26,-34a3.00328,3.00328 0 0 0 -3,3l0,26a3.00328,3.00328 0 0 0 3,3l26,0a3.00328,3.00328 0 0 0 3,-3l0,-26a3.00328,3.00328 0 0 0 -3,-3l-26,0z"/>
  <path id="svg_37" fill="#b2b2b2" d="m199.16142,36l-26,0a5.00573,5.00573 0 0 1 -5,-5l0,-26a5.00573,5.00573 0 0 1 5,-5l26,0a5.00573,5.00573 0 0 1 5,5l0,26a5.00573,5.00573 0 0 1 -5,5zm-26,-34a3.00328,3.00328 0 0 0 -3,3l0,26a3.00328,3.00328 0 0 0 3,3l26,0a3.00328,3.00328 0 0 0 3,-3l0,-26a3.00328,3.00328 0 0 0 -3,-3l-26,0z"/>
  <circle id="svg_38" fill="#b2b2b2" r="6.46689" cy="183.17011" cx="321.22047"/>
  <circle id="svg_39" fill="#b2b2b2" r="6.46689" cy="160.17011" cx="61.22047"/>
  <circle id="svg_40" fill="#b2b2b2" r="6.46689" cy="216.17011" cx="497.22047"/>
 </g>
</svg>